<svg viewBox="0 0 480 157" width="480" xmlns="http://www.w3.org/2000/svg" role="img" aria-label="my toolbox as a keyboard: python, c++, typescript, sql, next.js, react, fastapi, supabase, tailwind, jupyter, aws, git, claude code">
  <rect width="480" height="157" rx="16" fill="#837a81"/>
  <rect x="5" y="5" width="470" height="147" rx="12" fill="#6b626a"/>
  <rect x="11" y="10" width="20" height="23" rx="5" fill="#b0a6ad"/>
  <rect x="12.2" y="10.8" width="17.6" height="19.5" rx="4.5" fill="#f7f3f6"/>
  <rect x="34.5" y="10" width="20" height="23" rx="5" fill="#b0a6ad"/>
  <rect x="35.7" y="10.8" width="17.6" height="19.5" rx="4.5" fill="#f7f3f6"/>
  <rect x="58" y="10" width="20" height="23" rx="5" fill="#b0a6ad"/>
  <rect x="59.2" y="10.8" width="17.6" height="19.5" rx="4.5" fill="#f7f3f6"/>
  <rect x="81.5" y="10" width="20" height="23" rx="5" fill="#b0a6ad"/>
  <rect x="82.7" y="10.8" width="17.6" height="19.5" rx="4.5" fill="#f7f3f6"/>
  <rect x="105" y="10" width="20" height="23" rx="5" fill="#b0a6ad"/>
  <rect x="106.2" y="10.8" width="17.6" height="19.5" rx="4.5" fill="#f7f3f6"/>
  <rect x="128.5" y="10" width="20" height="23" rx="5" fill="#b0a6ad"/>
  <rect x="129.7" y="10.8" width="17.6" height="19.5" rx="4.5" fill="#f7f3f6"/>
  <rect x="152" y="10" width="20" height="23" rx="5" fill="#b0a6ad"/>
  <rect x="153.2" y="10.8" width="17.6" height="19.5" rx="4.5" fill="#f7f3f6"/>
  <rect x="175.5" y="10" width="20" height="23" rx="5" fill="#b0a6ad"/>
  <rect x="176.7" y="10.8" width="17.6" height="19.5" rx="4.5" fill="#f7f3f6"/>
  <rect x="199" y="10" width="20" height="23" rx="5" fill="#b0a6ad"/>
  <rect x="200.2" y="10.8" width="17.6" height="19.5" rx="4.5" fill="#f7f3f6"/>
  <rect x="222.5" y="10" width="20" height="23" rx="5" fill="#b0a6ad"/>
  <rect x="223.7" y="10.8" width="17.6" height="19.5" rx="4.5" fill="#f7f3f6"/>
  <rect x="246" y="10" width="20" height="23" rx="5" fill="#b0a6ad"/>
  <rect x="247.2" y="10.8" width="17.6" height="19.5" rx="4.5" fill="#f7f3f6"/>
  <rect x="269.5" y="10" width="20" height="23" rx="5" fill="#b0a6ad"/>
  <rect x="270.7" y="10.8" width="17.6" height="19.5" rx="4.5" fill="#f7f3f6"/>
  <rect x="293" y="10" width="20" height="23" rx="5" fill="#b0a6ad"/>
  <rect x="294.2" y="10.8" width="17.6" height="19.5" rx="4.5" fill="#f7f3f6"/>
  <rect x="316.5" y="10" width="20" height="23" rx="5" fill="#b0a6ad"/>
  <rect x="317.7" y="10.8" width="17.6" height="19.5" rx="4.5" fill="#f7f3f6"/>
  <rect x="340" y="10" width="20" height="23" rx="5" fill="#b0a6ad"/>
  <rect x="341.2" y="10.8" width="17.6" height="19.5" rx="4.5" fill="#f7f3f6"/>
  <rect x="363.5" y="10" width="20" height="23" rx="5" fill="#b0a6ad"/>
  <rect x="364.7" y="10.8" width="17.6" height="19.5" rx="4.5" fill="#f7f3f6"/>
  <rect x="387" y="10" width="20" height="23" rx="5" fill="#b0a6ad"/>
  <rect x="388.2" y="10.8" width="17.6" height="19.5" rx="4.5" fill="#f7f3f6"/>
  <rect x="410.5" y="10" width="20" height="23" rx="5" fill="#b0a6ad"/>
  <rect x="411.7" y="10.8" width="17.6" height="19.5" rx="4.5" fill="#f7f3f6"/>
  <rect x="434" y="10" width="35" height="23" rx="5" fill="#b0a6ad"/>
  <rect x="435.2" y="10.8" width="32.6" height="19.5" rx="4.5" fill="#f7f3f6"/>
  <rect x="11" y="37" width="26" height="23" rx="5" fill="#b0a6ad"/>
  <rect x="12.2" y="37.8" width="23.6" height="19.5" rx="4.5" fill="#f7f3f6"/>
  <rect x="40.5" y="37" width="20" height="23" rx="5" fill="#b0a6ad"/>
  <rect x="41.7" y="37.8" width="17.6" height="19.5" rx="4.5" fill="#f7f3f6"/>
  <rect x="64" y="37" width="56" height="23" rx="5" fill="#e58aae"/>
  <rect x="65.2" y="37.8" width="53.6" height="19.5" rx="4.5" fill="#f4b8cd"/>
  <text x="92" y="51.5" text-anchor="middle" font-size="10" font-weight="700" fill="#4a3239" font-family="Outfit, ui-rounded, 'SF Pro Rounded', 'Segoe UI', system-ui, sans-serif">python</text>
  <rect x="123.5" y="37" width="34" height="23" rx="5" fill="#a58bc9"/>
  <rect x="124.7" y="37.8" width="31.6" height="19.5" rx="4.5" fill="#cbb8e6"/>
  <text x="140.5" y="51.5" text-anchor="middle" font-size="10" font-weight="700" fill="#533d7a" font-family="Outfit, ui-rounded, 'SF Pro Rounded', 'Segoe UI', system-ui, sans-serif">c++</text>
  <rect x="161" y="37" width="82" height="23" rx="5" fill="#e58aae"/>
  <rect x="162.2" y="37.8" width="79.6" height="19.5" rx="4.5" fill="#f4b8cd"/>
  <text x="202" y="51.5" text-anchor="middle" font-size="10" font-weight="700" fill="#4a3239" font-family="Outfit, ui-rounded, 'SF Pro Rounded', 'Segoe UI', system-ui, sans-serif">typescript</text>
  <rect x="246.5" y="37" width="34" height="23" rx="5" fill="#a58bc9"/>
  <rect x="247.7" y="37.8" width="31.6" height="19.5" rx="4.5" fill="#cbb8e6"/>
  <text x="263.5" y="51.5" text-anchor="middle" font-size="10" font-weight="700" fill="#533d7a" font-family="Outfit, ui-rounded, 'SF Pro Rounded', 'Segoe UI', system-ui, sans-serif">sql</text>
  <rect x="284" y="37" width="20" height="23" rx="5" fill="#b0a6ad"/>
  <rect x="285.2" y="37.8" width="17.6" height="19.5" rx="4.5" fill="#f7f3f6"/>
  <rect x="307.5" y="37" width="20" height="23" rx="5" fill="#b0a6ad"/>
  <rect x="308.7" y="37.8" width="17.6" height="19.5" rx="4.5" fill="#f7f3f6"/>
  <rect x="331" y="37" width="20" height="23" rx="5" fill="#b0a6ad"/>
  <rect x="332.2" y="37.8" width="17.6" height="19.5" rx="4.5" fill="#f7f3f6"/>
  <rect x="354.5" y="37" width="20" height="23" rx="5" fill="#b0a6ad"/>
  <rect x="355.7" y="37.8" width="17.6" height="19.5" rx="4.5" fill="#f7f3f6"/>
  <rect x="378" y="37" width="20" height="23" rx="5" fill="#b0a6ad"/>
  <rect x="379.2" y="37.8" width="17.6" height="19.5" rx="4.5" fill="#f7f3f6"/>
  <rect x="401.5" y="37" width="67.5" height="23" rx="5" fill="#b0a6ad"/>
  <rect x="402.7" y="37.8" width="65.1" height="19.5" rx="4.5" fill="#f7f3f6"/>
  <rect x="11" y="64" width="32" height="23" rx="5" fill="#b0a6ad"/>
  <rect x="12.2" y="64.8" width="29.6" height="19.5" rx="4.5" fill="#f7f3f6"/>
  <rect x="46.5" y="64" width="60" height="23" rx="5" fill="#e58aae"/>
  <rect x="47.7" y="64.8" width="57.6" height="19.5" rx="4.5" fill="#f4b8cd"/>
  <text x="76.5" y="78.5" text-anchor="middle" font-size="10" font-weight="700" fill="#4a3239" font-family="Outfit, ui-rounded, 'SF Pro Rounded', 'Segoe UI', system-ui, sans-serif">next.js</text>
  <rect x="110" y="64" width="48" height="23" rx="5" fill="#a58bc9"/>
  <rect x="111.2" y="64.8" width="45.6" height="19.5" rx="4.5" fill="#cbb8e6"/>
  <text x="134" y="78.5" text-anchor="middle" font-size="10" font-weight="700" fill="#533d7a" font-family="Outfit, ui-rounded, 'SF Pro Rounded', 'Segoe UI', system-ui, sans-serif">react</text>
  <rect x="161.5" y="64" width="60" height="23" rx="5" fill="#e58aae"/>
  <rect x="162.7" y="64.8" width="57.6" height="19.5" rx="4.5" fill="#f4b8cd"/>
  <text x="191.5" y="78.5" text-anchor="middle" font-size="10" font-weight="700" fill="#4a3239" font-family="Outfit, ui-rounded, 'SF Pro Rounded', 'Segoe UI', system-ui, sans-serif">fastapi</text>
  <rect x="225" y="64" width="66" height="23" rx="5" fill="#a58bc9"/>
  <rect x="226.2" y="64.8" width="63.6" height="19.5" rx="4.5" fill="#cbb8e6"/>
  <text x="258" y="78.5" text-anchor="middle" font-size="10" font-weight="700" fill="#533d7a" font-family="Outfit, ui-rounded, 'SF Pro Rounded', 'Segoe UI', system-ui, sans-serif">supabase</text>
  <rect x="294.5" y="64" width="20" height="23" rx="5" fill="#b0a6ad"/>
  <rect x="295.7" y="64.8" width="17.6" height="19.5" rx="4.5" fill="#f7f3f6"/>
  <rect x="318" y="64" width="20" height="23" rx="5" fill="#b0a6ad"/>
  <rect x="319.2" y="64.8" width="17.6" height="19.5" rx="4.5" fill="#f7f3f6"/>
  <rect x="341.5" y="64" width="20" height="23" rx="5" fill="#b0a6ad"/>
  <rect x="342.7" y="64.8" width="17.6" height="19.5" rx="4.5" fill="#f7f3f6"/>
  <rect x="365" y="64" width="20" height="23" rx="5" fill="#b0a6ad"/>
  <rect x="366.2" y="64.8" width="17.6" height="19.5" rx="4.5" fill="#f7f3f6"/>
  <rect x="388.5" y="64" width="20" height="23" rx="5" fill="#b0a6ad"/>
  <rect x="389.7" y="64.8" width="17.6" height="19.5" rx="4.5" fill="#f7f3f6"/>
  <rect x="412" y="64" width="57" height="23" rx="5" fill="#b0a6ad"/>
  <rect x="413.2" y="64.8" width="54.6" height="19.5" rx="4.5" fill="#f7f3f6"/>
  <rect x="11" y="91" width="40" height="23" rx="5" fill="#b0a6ad"/>
  <rect x="12.2" y="91.8" width="37.6" height="19.5" rx="4.5" fill="#f7f3f6"/>
  <rect x="54.5" y="91" width="20" height="23" rx="5" fill="#b0a6ad"/>
  <rect x="55.7" y="91.8" width="17.6" height="19.5" rx="4.5" fill="#f7f3f6"/>
  <rect x="78" y="91" width="66" height="23" rx="5" fill="#e58aae"/>
  <rect x="79.2" y="91.8" width="63.6" height="19.5" rx="4.5" fill="#f4b8cd"/>
  <text x="111" y="105.5" text-anchor="middle" font-size="10" font-weight="700" fill="#4a3239" font-family="Outfit, ui-rounded, 'SF Pro Rounded', 'Segoe UI', system-ui, sans-serif">tailwind</text>
  <rect x="147.5" y="91" width="60" height="23" rx="5" fill="#a58bc9"/>
  <rect x="148.7" y="91.8" width="57.6" height="19.5" rx="4.5" fill="#cbb8e6"/>
  <text x="177.5" y="105.5" text-anchor="middle" font-size="10" font-weight="700" fill="#533d7a" font-family="Outfit, ui-rounded, 'SF Pro Rounded', 'Segoe UI', system-ui, sans-serif">jupyter</text>
  <rect x="211" y="91" width="34" height="23" rx="5" fill="#e58aae"/>
  <rect x="212.2" y="91.8" width="31.6" height="19.5" rx="4.5" fill="#f4b8cd"/>
  <text x="228" y="105.5" text-anchor="middle" font-size="10" font-weight="700" fill="#4a3239" font-family="Outfit, ui-rounded, 'SF Pro Rounded', 'Segoe UI', system-ui, sans-serif">aws</text>
  <rect x="248.5" y="91" width="34" height="23" rx="5" fill="#a58bc9"/>
  <rect x="249.7" y="91.8" width="31.6" height="19.5" rx="4.5" fill="#cbb8e6"/>
  <text x="265.5" y="105.5" text-anchor="middle" font-size="10" font-weight="700" fill="#533d7a" font-family="Outfit, ui-rounded, 'SF Pro Rounded', 'Segoe UI', system-ui, sans-serif">git</text>
  <rect x="286" y="91" width="20" height="23" rx="5" fill="#b0a6ad"/>
  <rect x="287.2" y="91.8" width="17.6" height="19.5" rx="4.5" fill="#f7f3f6"/>
  <rect x="309.5" y="91" width="20" height="23" rx="5" fill="#b0a6ad"/>
  <rect x="310.7" y="91.8" width="17.6" height="19.5" rx="4.5" fill="#f7f3f6"/>
  <rect x="333" y="91" width="20" height="23" rx="5" fill="#b0a6ad"/>
  <rect x="334.2" y="91.8" width="17.6" height="19.5" rx="4.5" fill="#f7f3f6"/>
  <rect x="356.5" y="91" width="20" height="23" rx="5" fill="#b0a6ad"/>
  <rect x="357.7" y="91.8" width="17.6" height="19.5" rx="4.5" fill="#f7f3f6"/>
  <rect x="380" y="91" width="20" height="23" rx="5" fill="#b0a6ad"/>
  <rect x="381.2" y="91.8" width="17.6" height="19.5" rx="4.5" fill="#f7f3f6"/>
  <rect x="403.5" y="91" width="65.5" height="23" rx="5" fill="#b0a6ad"/>
  <rect x="404.7" y="91.8" width="63.1" height="19.5" rx="4.5" fill="#f7f3f6"/>
  <rect x="11" y="118" width="30" height="23" rx="5" fill="#b0a6ad"/>
  <rect x="12.2" y="118.8" width="27.6" height="19.5" rx="4.5" fill="#f7f3f6"/>
  <rect x="44.5" y="118" width="26" height="23" rx="5" fill="#b0a6ad"/>
  <rect x="45.7" y="118.8" width="23.6" height="19.5" rx="4.5" fill="#f7f3f6"/>
  <rect x="74" y="118" width="250" height="23" rx="5" fill="#e58aae"/>
  <rect x="75.2" y="118.8" width="247.6" height="19.5" rx="4.5" fill="#f4b8cd"/>
  <text x="199" y="132.5" text-anchor="middle" font-size="10" font-weight="700" fill="#4a3239" font-family="Outfit, ui-rounded, 'SF Pro Rounded', 'Segoe UI', system-ui, sans-serif">claude code</text>
  <rect x="327.5" y="118" width="30" height="23" rx="5" fill="#b0a6ad"/>
  <rect x="328.7" y="118.8" width="27.6" height="19.5" rx="4.5" fill="#f7f3f6"/>
  <rect x="361" y="118" width="30" height="23" rx="5" fill="#b0a6ad"/>
  <rect x="362.2" y="118.8" width="27.6" height="19.5" rx="4.5" fill="#f7f3f6"/>
  <rect x="394.5" y="118" width="30" height="23" rx="5" fill="#b0a6ad"/>
  <rect x="395.7" y="118.8" width="27.6" height="19.5" rx="4.5" fill="#f7f3f6"/>
  <rect x="428" y="118" width="41" height="23" rx="5" fill="#a58bc9"/>
  <rect x="429.2" y="118.8" width="38.6" height="19.5" rx="4.5" fill="#cbb8e6"/>
  <text x="448.5" y="132.5" text-anchor="middle" font-size="11" font-weight="700" fill="#533d7a" font-family="Outfit, ui-rounded, 'SF Pro Rounded', 'Segoe UI', system-ui, sans-serif">♡</text>
</svg>
